# xmcd CD database file
#
# Track frame offsets:
#	200
#	12965
#	27512
#	45772
#	65317
#	80155
#	96527
#	109787
#	124567
#	140615
#	157227
#	170550
#	187115
#	202407
#	219622
#	239140
#	255220
#	272917
#
# Disc length: 3845 seconds
#
# Revision: 6
# Processed by: cddbd v1.5.2PL0 Copyright (c) Steve Scherf et al.
# Submitted via: CDex 1.70beta2
#
DISCID=140f0312
DTITLE=Bellamy Brothers - Let Your Love Flow (20 Years Of Hits)
DYEAR=1994
DGENRE=Country
TTITLE0=Let Your Love Flow
TTITLE1=If I Said You Had A Beautiful Body (Would You Hold It Against Me)
TTITLE2=Old Hippie
TTITLE3=You Ain't Just Whistlin' Dixie
TTITLE4=Dancin' Cowboys
TTITLE5=Sugar Daddy
TTITLE6=You're My Favorite Star
TTITLE7=Lovers Live Longer
TTITLE8=Crazy From The Heart
TTITLE9=Feelin' The Feelin'
TTITLE10=Do You Love As Good As You Look
TTITLE11=For All The Wrong Reasons
TTITLE12=Redneck Girl
TTITLE13=When I'm Away From You
TTITLE14=World's Greatest Lover
TTITLE15=Forget About Me
TTITLE16=Get Into Reggae Cowboy (Dance Mix)
TTITLE17=Kids Of The Baby Boom
EXTD=YEAR: 1994
EXTT0=
EXTT1=
EXTT2=
EXTT3=
EXTT4=
EXTT5=
EXTT6=
EXTT7=
EXTT8=
EXTT9=
EXTT10=
EXTT11=
EXTT12=
EXTT13=
EXTT14=
EXTT15=
EXTT16=
EXTT17=
PLAYORDER=
